<svg xmlns="http://www.w3.org/2000/svg" viewBox="0 0 512 512"><path d="M263.441 1.978A14.947 14.947 0 00256 0l-30 61 30 62.153L360.103 181H391l74.171 3.626 13.802-56.154a14.973 14.973 0 00-5.532-5.495l-210-120.999z" fill="#76e2f8"/><path d="M388.927 329.781l18.357 58.863 71.689-5.117A14.988 14.988 0 00481 376V136c0-2.688-.721-5.277-2.027-7.527L391 181l-15 38.833v72.349" fill="#25d9f8"/><path d="M263.441 510.022l210-121a14.98 14.98 0 005.532-5.495l-90.046-53.747-23.351-1.807L256 388.847l-30 70.028L256 512c1.282 0 2.567-.165 3.82-.494s2.472-.824 3.621-1.484z" fill="#76e2f8"/><path d="M168.19 323.386l-45.117 6.394-44.864-3.221-45.182 56.968a14.973 14.973 0 005.532 5.495l210 121c1.15.659 2.369 1.154 3.622 1.483s2.537.495 3.819.495V388.847l-87.81-65.461z" fill="#a8ebfa"/><path d="M121 181l-37.5-52.391-50.473-.137A14.994 14.994 0 0031 136v240c0 2.688.721 5.277 2.027 7.527l90.046-53.747 12.898-37.628.029-72.319L121 181z" fill="#76e2f8"/><path d="M248.559 1.978l-210 121a14.98 14.98 0 00-5.532 5.495L121 181h30.897L256 123.153V0c-2.571 0-5.142.659-7.441 1.978z" fill="#a8ebfa"/><path d="M256 406l-127.285-70.714a14.988 14.988 0 01-5.643-5.505 14.984 14.984 0 01-2.072-7.607V181l67.5 7.5L256 256l30 75-30 75z" fill="#ff7816"/><path d="M256 406l127.285-70.714a14.988 14.988 0 005.643-5.505 14.984 14.984 0 002.072-7.607V181l-97.5 7.5L256 256v150z" fill="#ff4b00"/><path d="M248.715 110.047L121 181l135 75 135-75-127.715-70.953a15 15 0 00-14.57 0z" fill="#ff9f00"/><path d="M391 181l-127.715-70.953A14.996 14.996 0 00256 108.16V256l135-75z" fill="#ff7816"/></svg>