<svg height="512" viewBox="0 0 64 64" width="512" xmlns="http://www.w3.org/2000/svg"><path d="M50 51h-5.692C48.456 46.536 51 40.561 51 34c0-5.44-1.768-10.688-5.006-15H54c4.962 0 9-4.038 9-9s-4.038-9-9-9h-6c-4.962 0-9 4.038-9 9v2.643A24.816 24.816 0 0026 9C12.215 9 1 20.215 1 34c0 6.33 2.409 12.398 6.676 17H7v2h19v-2H10.518A23.016 23.016 0 013 34c0-12.682 10.318-23 23-23 4.684 0 9.163 1.404 13 4.041V19h4.416A22.948 22.948 0 0149 34c0 12.682-10.318 23-23 23H9v2h41v3.766L62.944 55 50 47.234zm-9-34v-7c0-3.86 3.14-7 7-7h6c3.86 0 7 3.14 7 7s-3.14 7-7 7zm11 33.766L59.056 55 52 59.234V57H35.793a25.035 25.035 0 006.428-4H52zM3 51h2v2H3zM1 57h2v2H1zM5 57h2v2H5z"/><path d="M26 15C15.523 15 7 23.523 7 34s8.523 19 19 19 19-8.523 19-19-8.523-19-19-19zm0 33c-7.732 0-14-6.268-14-14s6.268-14 14-14 14 6.268 14 14-6.268 14-14 14z" fill="#f0bc5e"/><path d="M26 19c-8.271 0-15 6.729-15 15s6.729 15 15 15 15-6.729 15-15-6.729-15-15-15zm12.949 16a12.926 12.926 0 01-3.088 7.447l-2.791-2.791-1.414 1.414 2.791 2.791A12.929 12.929 0 0127 46.949V43h-2v3.949a12.926 12.926 0 01-7.447-3.088l2.791-2.791-1.414-1.414-2.791 2.791A12.929 12.929 0 0113.051 35H17v-2h-3.949a12.926 12.926 0 013.088-7.447l2.791 2.791 1.414-1.414-2.791-2.791A12.929 12.929 0 0125 21.051V25h2v-3.949a12.926 12.926 0 017.447 3.088l-2.791 2.791 1.414 1.414 2.791-2.791A12.929 12.929 0 0138.949 33H35v2z"/><path d="M29 34a2.996 2.996 0 00-2-2.816V27h-2v4.184A2.996 2.996 0 0023 34c0 1.654 1.346 3 3 3a2.95 2.95 0 001.285-.301l2.008 2.008 1.414-1.414-2.008-2.008A2.95 2.95 0 0029 34zm-3 1c-.551 0-1-.449-1-1s.449-1 1-1 1 .449 1 1-.449 1-1 1z"/><path d="M46 6h10v9H46z" fill="#f0bc5e"/><path d="M46 5h10v2H46zM46 9h10v2H46zM54 13h2v2h-2zM50 13h2v2h-2zM46 13h2v2h-2z"/></svg>