<svg height="511pt" viewBox="1 -14 511.999 511" width="511pt" xmlns="http://www.w3.org/2000/svg"><path d="M238.305 377.941h35.394v75.207h-35.394zm0 0" fill="#3e4151"/><path d="M238.305 377.941h20.601v75.207h-20.601zm0 0" fill="#353744"/><path d="M473.648.5H38.352C17.203.5 0 17.703 0 38.852V345.82c0 21.145 17.203 38.348 38.352 38.348h435.296c21.149 0 38.352-17.203 38.352-38.348V38.852C512 17.703 494.797.5 473.648.5zm0 0" fill="#525468"/><path d="M20.605 345.82V38.852C20.605 17.703 37.81.5 58.957.5H38.352C17.203.5 0 17.703 0 38.852V345.82c0 21.145 17.203 38.352 38.352 38.352h20.605c-21.148 0-38.352-17.207-38.352-38.352zm0 0" fill="#3e4151"/><path d="M473.648 35.895H38.352c-1.575 0-2.957 1.382-2.957 2.957V345.82c0 1.575 1.382 2.957 2.957 2.957h435.296c1.575 0 2.957-1.382 2.957-2.957V38.852c0-1.575-1.382-2.957-2.957-2.957zm0 0" fill="#ffc964"/><path d="M56 345.82V38.852c0-1.575 1.383-2.957 2.957-2.957H38.352c-1.575 0-2.957 1.382-2.957 2.957V345.82c0 1.575 1.382 2.957 2.957 2.957h20.605c-1.574 0-2.957-1.382-2.957-2.957zm0 0" fill="#f3a334"/><path d="M364.113 447.902H147.887c-9.489 0-17.176 7.692-17.176 17.176v1.043c0 9.484 7.687 17.176 17.176 17.176h216.226c9.489 0 17.176-7.692 17.176-17.176v-1.043c0-9.484-7.687-17.176-17.176-17.176zm0 0" fill="#525468"/><path d="M364.113 462.691H147.887c-5.852 0-11.008-2.93-14.11-7.394a17.08 17.08 0 00-3.066 9.781v1.043c0 9.484 7.687 17.176 17.176 17.176h216.226c9.489 0 17.176-7.692 17.176-17.176v-1.043a17.08 17.08 0 00-3.066-9.781c-3.102 4.465-8.258 7.394-14.11 7.394zm0 0" fill="#3e4151"/><path d="M283.805 208.785l-12.516-21.676a3.207 3.207 0 00-2.773-1.601h-25.032c-1.144 0-2.203.61-2.773 1.601l-12.516 21.676c-.57.988-.57 2.211 0 3.203l12.516 21.676a3.202 3.202 0 002.773 1.598h25.032c1.14 0 2.199-.61 2.773-1.598l12.516-21.676c.57-.992.57-2.215 0-3.203zm0 0" fill="#4b98d4"/><path d="M361.387 193.066h-18.703c-2.246 0-4.18-1.539-4.739-3.714a84.044 84.044 0 00-9.132-22.024c-1.149-1.937-.872-4.394.718-5.984l13.23-13.23a4.88 4.88 0 000-6.903l-17.585-17.59a4.88 4.88 0 00-6.903 0l-13.23 13.23c-1.59 1.59-4.05 1.868-5.984.72a84.155 84.155 0 00-22.024-9.133c-2.18-.555-3.719-2.489-3.719-4.735V105a4.881 4.881 0 00-4.879-4.883h-24.875a4.881 4.881 0 00-4.878 4.883v18.703c0 2.246-1.54 4.18-3.72 4.734a84.155 84.155 0 00-22.023 9.133c-1.933 1.149-4.394.871-5.984-.718l-13.23-13.23a4.88 4.88 0 00-6.903 0l-17.59 17.589a4.88 4.88 0 000 6.902l13.235 13.23c1.59 1.59 1.867 4.048.719 5.981a84.125 84.125 0 00-9.133 22.028c-.559 2.175-2.493 3.714-4.739 3.714h-18.703a4.878 4.878 0 00-4.879 4.88v24.874a4.881 4.881 0 004.88 4.883h18.702c2.246 0 4.18 1.54 4.739 3.715a84.022 84.022 0 009.132 22.023c1.145 1.938.872 4.395-.718 5.985l-13.235 13.23a4.88 4.88 0 000 6.903l17.59 17.59a4.88 4.88 0 006.903 0l13.23-13.231c1.59-1.59 4.05-1.867 5.984-.723a84.022 84.022 0 0022.024 9.133c2.18.559 3.719 2.492 3.719 4.738v18.704a4.878 4.878 0 004.879 4.878h24.875a4.878 4.878 0 004.878-4.878v-18.704c0-2.246 1.54-4.18 3.72-4.738a84.022 84.022 0 0022.023-9.133c1.933-1.144 4.394-.867 5.984.723l13.23 13.23a4.88 4.88 0 006.903 0l17.586-17.59a4.88 4.88 0 000-6.902l-13.23-13.23c-1.59-1.59-1.868-4.051-.72-5.985a84.155 84.155 0 009.133-22.023c.559-2.18 2.492-3.719 4.739-3.719h18.703a4.88 4.88 0 004.879-4.879v-24.875a4.883 4.883 0 00-4.88-4.879zM256 263.406c-29.281 0-53.02-23.738-53.02-53.023 0-29.281 23.739-53.02 53.02-53.02s53.02 23.739 53.02 53.02c0 29.285-23.739 53.023-53.02 53.023zm0 0" fill="#4b98d4"/><g fill="#2472b2"><path d="M261.316 233.66l-12.515-21.676a3.212 3.212 0 010-3.203l12.515-21.676a3.21 3.21 0 012.774-1.601h-20.606c-1.14 0-2.199.613-2.773 1.601l-12.512 21.676a3.193 3.193 0 000 3.203l12.512 21.676a3.207 3.207 0 002.773 1.602h20.606c-1.145 0-2.2-.61-2.774-1.602zm0 0M189.84 279.559a4.88 4.88 0 010-6.903l13.23-13.23c1.59-1.59 1.868-4.047.723-5.98a83.993 83.993 0 01-9.133-22.028c-.558-2.176-2.492-3.715-4.738-3.715h-18.703a4.881 4.881 0 01-4.88-4.883v-24.87c0-2.7 2.184-4.884 4.88-4.884h18.703c2.25 0 4.183-1.539 4.738-3.714a84.044 84.044 0 019.133-22.024c1.144-1.937.871-4.394-.719-5.984l-13.23-13.23a4.88 4.88 0 010-6.903l10.734-10.738-6.851-6.852a4.88 4.88 0 00-6.903 0l-17.586 17.59a4.88 4.88 0 000 6.902l13.23 13.23c1.59 1.59 1.868 4.048.72 5.985a84.044 84.044 0 00-9.133 22.024c-.559 2.175-2.489 3.714-4.739 3.714h-18.703a4.884 4.884 0 00-4.879 4.883v24.871a4.881 4.881 0 004.88 4.883h18.702c2.25 0 4.184 1.54 4.739 3.715a84.125 84.125 0 009.132 22.027c1.149 1.934.872 4.39-.718 5.98l-13.23 13.231a4.88 4.88 0 000 6.903l17.585 17.59a4.88 4.88 0 006.903 0l6.851-6.852zm0 0M243.563 100.121a4.878 4.878 0 00-4.88 4.879v18.703a4.87 4.87 0 01-2.265 4.106c2.727-1.11 9.207-3.348 18.262-3.954 2.586-.171 4.61-2.293 4.61-4.882V105a4.878 4.878 0 014.878-4.879zm0 0M259.285 315.77v-15.602a3.136 3.136 0 00-3.039-3.14c-10.45-.278-16.055-1.954-18.848-3.223a4.818 4.818 0 011.286 3.261v18.704a4.878 4.878 0 004.878 4.878h20.606a4.879 4.879 0 01-4.883-4.878zm0 0"/></g><path d="M473.648 33.836H38.352c-1.575 0-2.957 1.379-2.957 2.957V69.23h441.21V36.793c0-1.578-1.382-2.957-2.957-2.957zm0 0" fill="#4b98d4"/><path d="M70.79 33.836H38.351c-1.575 0-2.957 1.379-2.957 2.957V69.23h35.394zm0 0" fill="#ed5454"/><path d="M58.914 33.836H38.352c-1.575 0-2.957 1.379-2.957 2.957V69.23h20.562V36.793c0-1.578 1.383-2.957 2.957-2.957zm0 0" fill="#ea3f3f"/></svg>