<svg height="511pt" viewBox="1 -14 511.999 511" width="511pt" xmlns="http://www.w3.org/2000/svg"><path d="m238.304688 377.941406h35.394531v75.207032h-35.394531zm0 0" fill="#3e4151"/><path d="m238.304688 377.941406h20.601562v75.207032h-20.601562zm0 0" fill="#353744"/><path d="m473.648438.5h-435.296876c-21.148437 0-38.351562 17.203125-38.351562 38.351562v306.96875c0 21.144532 17.203125 38.347657 38.351562 38.347657h435.296876c21.148437 0 38.351562-17.203125 38.351562-38.347657 0-8.191406 0-298.636718 0-306.96875 0-21.148437-17.203125-38.351562-38.351562-38.351562zm0 0" fill="#525468"/><path d="m20.605469 345.820312c0-8.335937 0-298.78125 0-306.96875 0-21.148437 17.203125-38.351562 38.351562-38.351562h-20.605469c-21.148437 0-38.351562 17.203125-38.351562 38.351562v306.96875c0 21.144532 17.203125 38.351563 38.351562 38.351563h20.605469c-21.148437 0-38.351562-17.207031-38.351562-38.351563zm0 0" fill="#3e4151"/><path d="m473.648438 35.894531h-435.296876c-1.574218 0-2.957031 1.382813-2.957031 2.957031v306.96875c0 1.574219 1.382813 2.957032 2.957031 2.957032h435.296876c1.574218 0 2.957031-1.382813 2.957031-2.957032 0-8.832031 0-302.796874 0-306.96875 0-1.574218-1.382813-2.957031-2.957031-2.957031zm0 0" fill="#ffc964"/><path d="m56 345.820312c0-8.488281 0-299.226562 0-306.96875 0-1.574218 1.382812-2.957031 2.957031-2.957031h-20.605469c-1.574218 0-2.957031 1.382813-2.957031 2.957031v306.96875c0 1.574219 1.382813 2.957032 2.957031 2.957032h20.605469c-1.574219 0-2.957031-1.382813-2.957031-2.957032zm0 0" fill="#f3a334"/><path d="m364.113281 447.902344h-216.226562c-9.488281 0-17.175781 7.691406-17.175781 17.175781v1.042969c0 9.484375 7.6875 17.175781 17.175781 17.175781h216.226562c9.488281 0 17.175781-7.691406 17.175781-17.175781v-1.042969c0-9.484375-7.6875-17.175781-17.175781-17.175781zm0 0" fill="#525468"/><path d="m364.113281 462.691406h-216.226562c-5.851563 0-11.007813-2.929687-14.109375-7.394531-1.929688 2.777344-3.066406 6.144531-3.066406 9.78125v1.042969c0 9.484375 7.6875 17.175781 17.175781 17.175781h216.226562c9.488281 0 17.175781-7.691406 17.175781-17.175781v-1.042969c0-3.636719-1.136718-7.003906-3.066406-9.78125-3.101562 4.464844-8.257812 7.394531-14.109375 7.394531zm0 0" fill="#3e4151"/><path d="m283.804688 208.785156-12.515626-21.675781c-.574218-.992187-1.632812-1.601563-2.773437-1.601563h-25.03125c-1.144531 0-2.203125.609376-2.773437 1.601563l-12.515626 21.675781c-.570312.988282-.570312 2.210938 0 3.203125l12.515626 21.675781c.570312.988282 1.628906 1.597657 2.773437 1.597657h25.03125c1.140625 0 2.199219-.609375 2.773437-1.597657l12.515626-21.675781c.570312-.992187.570312-2.214843 0-3.203125zm0 0" fill="#4b98d4"/><path d="m361.386719 193.066406h-18.703125c-2.246094 0-4.179688-1.539062-4.738282-3.714844-2.007812-7.839843-5.109374-15.238281-9.132812-22.023437-1.148438-1.9375-.871094-4.394531.71875-5.984375l13.230469-13.230469c1.90625-1.90625 1.90625-4.996093 0-6.902343l-17.585938-17.589844c-1.90625-1.90625-4.996093-1.90625-6.902343 0l-13.230469 13.230468c-1.589844 1.589844-4.050781 1.867188-5.984375.71875-6.789063-4.023437-14.1875-7.125-22.023438-9.132812-2.179687-.554688-3.71875-2.488281-3.71875-4.734375v-18.703125c0-2.695312-2.183594-4.882812-4.878906-4.882812h-24.875c-2.695312 0-4.878906 2.1875-4.878906 4.882812v18.703125c0 2.246094-1.539063 4.179687-3.71875 4.734375-7.835938 2.007812-15.234375 5.109375-22.023438 9.132812-1.933594 1.148438-4.394531.871094-5.984375-.71875l-13.230469-13.230468c-1.90625-1.90625-4.996093-1.90625-6.902343 0l-17.589844 17.589844c-1.90625 1.902343-1.90625 4.996093 0 6.902343l13.234375 13.230469c1.589844 1.589844 1.867188 4.046875.71875 5.980469-4.023438 6.789062-7.125 14.1875-9.132812 22.027343-.558594 2.175782-2.492188 3.714844-4.738282 3.714844h-18.703125c-2.695312 0-4.878906 2.183594-4.878906 4.878906v24.875c0 2.695313 2.183594 4.882813 4.878906 4.882813h18.703125c2.246094 0 4.179688 1.539063 4.738282 3.714844 2.003906 7.835937 5.109374 15.234375 9.132812 22.023437 1.144531 1.9375.871094 4.394532-.71875 5.984375l-13.234375 13.230469c-1.90625 1.90625-1.90625 4.996094 0 6.902344l17.589844 17.589844c1.90625 1.90625 4.996093 1.90625 6.902343 0l13.230469-13.230469c1.589844-1.589844 4.050781-1.867188 5.984375-.722657 6.789063 4.023438 14.1875 7.128907 22.023438 9.132813 2.179687.558594 3.71875 2.492187 3.71875 4.738281v18.703125c0 2.695313 2.183594 4.878907 4.878906 4.878907h24.875c2.695312 0 4.878906-2.183594 4.878906-4.878907v-18.703125c0-2.246094 1.539063-4.179687 3.71875-4.738281 7.835938-2.003906 15.234375-5.109375 22.023438-9.132813 1.933594-1.144531 4.394531-.867187 5.984375.722657l13.230469 13.230469c1.90625 1.90625 4.996093 1.90625 6.902343 0l17.585938-17.589844c1.90625-1.90625 1.90625-4.996094 0-6.902344l-13.230469-13.230469c-1.589844-1.589843-1.867188-4.050781-.71875-5.984375 4.023438-6.789062 7.125-14.1875 9.132812-22.023437.558594-2.179688 2.492188-3.71875 4.738282-3.71875h18.703125c2.691406 0 4.878906-2.183594 4.878906-4.878907v-24.875c0-2.691406-2.1875-4.878906-4.878906-4.878906zm-105.386719 70.339844c-29.28125 0-53.019531-23.738281-53.019531-53.023438 0-29.28125 23.738281-53.019531 53.019531-53.019531s53.019531 23.738281 53.019531 53.019531c0 29.285157-23.738281 53.023438-53.019531 53.023438zm0 0" fill="#4b98d4"/><g fill="#2472b2"><path d="m261.316406 233.660156-12.515625-21.675781c-.570312-.988281-.570312-2.210937 0-3.203125l12.515625-21.675781c.574219-.988281 1.628906-1.601563 2.773438-1.601563h-20.605469c-1.140625 0-2.199219.613282-2.773437 1.601563l-12.511719 21.675781c-.574219.992188-.574219 2.214844 0 3.203125l12.511719 21.675781c.574218.992188 1.632812 1.601563 2.773437 1.601563h20.605469c-1.144532 0-2.199219-.609375-2.773438-1.601563zm0 0"/><path d="m189.839844 279.558594c-1.90625-1.90625-1.90625-4.996094 0-6.902344l13.230468-13.230469c1.589844-1.589843 1.867188-4.046875.722657-5.980469-4.023438-6.789062-7.128907-14.1875-9.132813-22.027343-.558594-2.175781-2.492187-3.714844-4.738281-3.714844h-18.703125c-2.695312 0-4.878906-2.1875-4.878906-4.882813v-24.871093c0-2.699219 2.183594-4.882813 4.878906-4.882813h18.703125c2.25 0 4.183594-1.539062 4.738281-3.714844 2.007813-7.839843 5.109375-15.238281 9.132813-22.023437 1.144531-1.9375.871093-4.394531-.71875-5.984375l-13.230469-13.230469c-1.90625-1.90625-1.90625-4.996093 0-6.902343l10.734375-10.738282-6.851563-6.851562c-1.90625-1.90625-4.996093-1.90625-6.902343 0l-17.585938 17.589844c-1.90625 1.90625-1.90625 4.996093 0 6.902343l13.230469 13.230469c1.589844 1.589844 1.867188 4.046875.71875 5.984375-4.023438 6.785156-7.125 14.183594-9.132812 22.023437-.558594 2.175782-2.488282 3.714844-4.738282 3.714844h-18.703125c-2.691406 0-4.878906 2.1875-4.878906 4.882813v24.871093c0 2.695313 2.183594 4.882813 4.878906 4.882813h18.703125c2.25 0 4.183594 1.539063 4.738282 3.714844 2.007812 7.839843 5.109374 15.238281 9.132812 22.027343 1.148438 1.933594.871094 4.390626-.71875 5.980469l-13.230469 13.230469c-1.90625 1.90625-1.90625 4.996094 0 6.902344l17.585938 17.589844c1.90625 1.90625 4.996093 1.90625 6.902343 0l6.851563-6.851563zm0 0"/><path d="m243.5625 100.121094c-2.695312 0-4.878906 2.183594-4.878906 4.878906v18.703125c0 1.703125-.886719 3.222656-2.265625 4.105469 2.726562-1.109375 9.207031-3.347656 18.261719-3.953125 2.585937-.171875 4.609374-2.292969 4.609374-4.882813v-13.972656c0-2.695312 2.183594-4.878906 4.878907-4.878906zm0 0"/><path d="m259.285156 315.769531v-15.601562c0-1.695313-1.34375-3.09375-3.039062-3.140625-10.449219-.277344-16.054688-1.953125-18.847656-3.222656.796874.871093 1.285156 2.011718 1.285156 3.261718v18.703125c0 2.695313 2.183594 4.878907 4.878906 4.878907h20.605469c-2.695313.003906-4.882813-2.183594-4.882813-4.878907zm0 0"/></g><path d="m473.648438 33.835938h-435.296876c-1.574218 0-2.957031 1.378906-2.957031 2.957031v32.4375h441.210938c0-19.277344 0-31.609375 0-32.4375 0-1.578125-1.382813-2.957031-2.957031-2.957031zm0 0" fill="#4b98d4"/><path d="m70.789062 33.835938h-32.4375c-1.574218 0-2.957031 1.378906-2.957031 2.957031v32.4375h35.394531zm0 0" fill="#ed5454"/><path d="m58.914062 33.835938h-20.5625c-1.574218 0-2.957031 1.378906-2.957031 2.957031v32.4375h20.5625c0-18.734375 0-30.933594 0-32.4375 0-1.578125 1.382813-2.957031 2.957031-2.957031zm0 0" fill="#ea3f3f"/></svg>