<svg version="1.1" id="_x31_0" xmlns="http://www.w3.org/2000/svg" x="0" y="0" viewBox="0 0 512 512" style="width:256px;height:256px" xml:space="preserve" opacity="1"><style>.st0{fill:#374149}</style><path class="st0" d="M504.728 241.924l-94.036-84.566V50.912c0-12.118-9.82-21.942-21.942-21.942h-66.285c-12.122 0-21.946 9.824-21.946 21.942v6.16l-.102 3.91-29.867-26.465c-8.301-7.356-20.786-7.356-29.102 0L7.394 241.815a21.942 21.942 0 0014.546 38.367h57.172v180.902c0 12.122 9.825 21.946 21.946 21.946h309.884c12.121 0 21.942-9.824 21.942-21.946V280.182h57.172a21.936 21.936 0 0020.488-14.086 21.942 21.942 0 00-5.816-24.172zm-93.786-5.625c-12.122 0-21.942 9.824-21.942 21.942v180.903H123V258.24c0-12.118-9.824-21.942-21.942-21.942H88.855l-8.914-.117L256 80.26l51.914 45.992a21.948 21.948 0 0023.555 3.586 21.945 21.945 0 0012.938-20.011V72.853h22.398v94.282a21.932 21.932 0 007.274 16.316l33.836 30.426 24.75 22.422h-21.723z" fill="#4b4b4b"/><path class="st0" d="M323.574 247.74c-20.465-11.867-43.832-18.137-67.574-18.137-23.758 0-47.133 6.27-67.594 18.137a135.237 135.237 0 00-27.961 21.492l-1.118 1.114-.004.007-.113.11 18.187 18.192 1.234-1.234a110.24 110.24 0 0122.637-17.402c16.562-9.61 35.489-14.688 54.73-14.688 19.242 0 38.165 5.078 54.727 14.688a110.35 110.35 0 0122.645 17.402l1.23 1.234 18.187-18.192-1.234-1.234c-8.428-8.395-17.842-15.629-27.979-21.489z" fill="#4b4b4b"/><path class="st0" d="M320.109 306.041a90.88 90.88 0 00-18.754-14.422 90.66 90.66 0 00-45.356-12.176 90.617 90.617 0 00-45.351 12.176c-6.797 3.922-13.11 8.777-18.758 14.422l-1.109 1.114-.008.003v.004l-.114.114 18.004 18.023.047.047h.004l.113.114 1.23-1.231a64.643 64.643 0 0113.477-10.336 64.773 64.773 0 0132.465-8.726 64.81 64.81 0 0132.469 8.726 65.486 65.486 0 0113.45 10.336l1.23 1.231 18.078-18.07v-.004l.113-.11-1.23-1.235zM271.723 339.631a22.407 22.407 0 00-4.602-3.535 22.177 22.177 0 00-11.122-2.98c-4.07 0-7.851 1.09-11.121 2.98a21.855 21.855 0 00-4.606 3.535 22.29 22.29 0 00-3.535 4.606 22.177 22.177 0 00-2.98 11.122c0 4.046 1.09 7.851 2.98 11.121a22.399 22.399 0 003.535 4.602 21.788 21.788 0 004.606 3.539 22.11 22.11 0 0011.121 2.981 22.17 22.17 0 0015.724-6.52 22.268 22.268 0 003.535-4.602 22.179 22.179 0 002.984-11.121c0-4.047-1.094-7.852-2.984-11.122a22.186 22.186 0 00-3.535-4.606z" fill="#4b4b4b"/></svg>