<!--?xml version="1.0" encoding="utf-8"?-->
<!-- Generator: Adobe Illustrator 19.1.1, SVG Export Plug-In . SVG Version: 6.00 Build 0)  -->
<svg version="1.1" id="_x31_0" xmlns="http://www.w3.org/2000/svg" xmlns:xlink="http://www.w3.org/1999/xlink" x="0px" y="0px" viewBox="0 0 512 512" style="width: 256px; height: 256px; opacity: 1;" xml:space="preserve">
<style type="text/css">
	.st0{fill:#374149;}
</style>
<g>
	<path class="st0" d="M504.728,241.924l-94.036-84.566V50.912c0-12.118-9.82-21.942-21.942-21.942h-66.285
		c-12.122,0-21.946,9.824-21.946,21.942v6.16l-0.102,3.91l-29.867-26.465c-8.301-7.356-20.786-7.356-29.102,0L7.394,241.815
		c-6.825,6.042-9.199,15.679-5.969,24.203c3.23,8.523,11.398,14.164,20.515,14.164h57.157h0.015v180.902
		c0,12.122,9.825,21.946,21.946,21.946h309.884c12.121,0,21.942-9.824,21.942-21.946V280.576v-0.394h57.172
		c9.086,0,17.238-5.598,20.488-14.086C513.798,257.612,511.485,248.002,504.728,241.924z M410.942,236.299
		c-12.122,0-21.942,9.824-21.942,21.942v179.958v0.945H123V258.24c0-12.118-9.824-21.942-21.942-21.942H88.855l-8.914-0.117
		L256,80.26l51.914,45.992c6.458,5.718,15.684,7.133,23.555,3.586c7.874-3.546,12.938-11.374,12.938-20.011V72.853h22.398v94.282
		c0,6.226,2.644,12.156,7.274,16.316l33.836,30.426l24.75,22.422H410.942z" style="fill: rgb(75, 75, 75);"></path>
	<path class="st0" d="M323.574,247.74c-20.465-11.867-43.832-18.137-67.574-18.137c-23.758,0-47.133,6.27-67.594,18.137
		c-10.168,5.875-19.578,13.106-27.961,21.492l-1.118,1.114l-0.004,0.007l0,0l-0.113,0.11l18.187,18.192l1.234-1.234
		c6.75-6.75,14.367-12.606,22.637-17.402c16.562-9.61,35.489-14.688,54.73-14.688c19.242,0,38.165,5.078,54.727,14.688
		c8.274,4.797,15.89,10.652,22.645,17.402l1.23,1.234l18.187-18.192l-1.234-1.234C343.125,260.834,333.711,253.6,323.574,247.74z" style="fill: rgb(75, 75, 75);"></path>
	<path class="st0" d="M320.109,306.041c-5.644-5.641-11.953-10.492-18.754-14.422c-13.762-7.965-29.446-12.176-45.356-12.176
		c-15.914,0-31.594,4.211-45.351,12.176c-6.797,3.922-13.11,8.777-18.758,14.422l-1.109,1.114l-0.008,0.003v0.004l-0.114,0.114
		l18.004,18.023l0.047,0.047h0.004l0.113,0.114l1.23-1.231c4.039-4.038,8.57-7.515,13.477-10.336
		c9.836-5.706,21.062-8.726,32.465-8.726c11.398,0,22.63,3.02,32.469,8.726c4.906,2.844,9.434,6.321,13.45,10.336l1.23,1.231
		l18.078-18.07v-0.004l0,0l0.113-0.11L320.109,306.041z" style="fill: rgb(75, 75, 75);"></path>
	<path class="st0" d="M271.723,339.631c-1.379-1.378-2.914-2.554-4.602-3.535c-3.27-1.89-7.074-2.98-11.122-2.98
		c-4.07,0-7.851,1.09-11.121,2.98c-1.691,0.981-3.246,2.157-4.606,3.535c-1.379,1.379-2.554,2.914-3.535,4.606
		c-1.89,3.27-2.98,7.074-2.98,11.122c0,4.046,1.09,7.851,2.98,11.121c0.981,1.688,2.156,3.222,3.535,4.602
		c1.359,1.379,2.914,2.558,4.606,3.539c3.27,1.89,7.05,2.981,11.121,2.981c4.047,0,7.852-1.09,11.122-2.981
		c1.687-0.981,3.222-2.16,4.602-3.539c1.378-1.379,2.558-2.914,3.535-4.602c1.89-3.27,2.984-7.074,2.984-11.121
		c0-4.047-1.094-7.852-2.984-11.122C274.281,342.545,273.101,341.01,271.723,339.631z" style="fill: rgb(75, 75, 75);"></path>
</g>
</svg>
