<svg xmlns="http://www.w3.org/2000/svg" viewBox="0 0 511.999 511.999"><path d="M464.255 477.405H47.744C21.418 477.405 0 455.989 0 429.662V82.336C0 56.01 21.418 34.593 47.744 34.593h416.511c26.326 0 47.744 21.418 47.744 47.744 0 7.641-6.195 13.838-13.838 13.838s-13.838-6.196-13.838-13.838c0-11.066-9.003-20.069-20.069-20.069H47.744c-11.066 0-20.069 9.001-20.069 20.067v347.326c0 11.066 9.003 20.069 20.069 20.069h416.511c11.066 0 20.069-9.003 20.069-20.069V244.01c0-7.641 6.195-13.838 13.838-13.838S512 236.368 512 244.01v185.652c0 26.327-21.418 47.743-47.745 47.743z" fill="#2d527c"/><path d="M13.838 82.336v69.883h484.323V82.336c0-18.726-15.18-33.906-33.906-33.906H47.744c-18.725-.001-33.906 15.181-33.906 33.906z" fill="#cee8fa"/><g fill="#2d527c"><path d="M498.162 166.056H13.838C6.195 166.056 0 159.859 0 152.218V82.336C0 56.01 21.418 34.593 47.744 34.593h416.511c26.326 0 47.744 21.418 47.744 47.744v69.883c.001 7.641-6.194 13.836-13.837 13.836zM27.675 138.381h456.65V82.336c0-11.066-9.003-20.069-20.069-20.069H47.745c-11.067.001-20.07 9.003-20.07 20.069v56.045z"/><path d="M294.742 114.161H268.45c-7.642 0-13.838-6.196-13.838-13.838s6.195-13.838 13.838-13.838h26.291c7.642 0 13.838 6.196 13.838 13.838s-6.195 13.838-13.837 13.838zM368.081 114.161H341.79c-7.642 0-13.838-6.196-13.838-13.838s6.195-13.838 13.838-13.838h26.291c7.643 0 13.838 6.196 13.838 13.838s-6.196 13.838-13.838 13.838zM441.42 114.161h-26.291c-7.642 0-13.838-6.196-13.838-13.838s6.195-13.838 13.838-13.838h26.291c7.642 0 13.838 6.196 13.838 13.838s-6.195 13.838-13.838 13.838z"/></g><path fill="#cee8fa" d="M112.776 303.042h286.438v63.653H112.776z"/><g fill="#2d527c"><path d="M399.218 380.538H112.78c-7.642 0-13.838-6.196-13.838-13.838v-63.653c0-7.641 6.195-13.838 13.838-13.838h286.438c7.643 0 13.838 6.196 13.838 13.838V366.7c0 7.643-6.195 13.838-13.838 13.838zm-272.6-27.675h258.763v-35.978H126.618v35.978zM357.531 257.384H154.467c-7.642 0-13.838-6.196-13.838-13.838s6.195-13.838 13.838-13.838h203.064c7.643 0 13.838 6.196 13.838 13.838s-6.195 13.838-13.838 13.838z"/></g></svg>