<svg xmlns="http://www.w3.org/2000/svg" viewBox="0 0 512 512"><path d="M0 47.729h451.254v373.153H34.712C15.541 420.881 0 405.34 0 386.169V47.729z" fill="#b0d3f0"/><path d="M451.254 39.051v34.712H0V39.051C0 19.88 15.541 4.339 34.712 4.339h381.831c19.17 0 34.711 15.541 34.711 34.712z" fill="#4482c3"/><path d="M52.068 47.729H43.39c-4.793 0-8.678-3.885-8.678-8.678s3.885-8.678 8.678-8.678h8.678c4.793 0 8.678 3.885 8.678 8.678s-3.885 8.678-8.678 8.678z" fill="#f0c419"/><path d="M95.458 47.729H86.78c-4.793 0-8.678-3.885-8.678-8.678s3.885-8.678 8.678-8.678h8.678a8.678 8.678 0 010 17.356z" fill="#24ae5f"/><path d="M138.847 47.729h-8.678c-4.793 0-8.678-3.885-8.678-8.678s3.885-8.678 8.678-8.678h8.678c4.793 0 8.678 3.885 8.678 8.678s-3.885 8.678-8.678 8.678z" fill="#ff5364"/><path d="M407.864 47.729H173.559c-4.793 0-8.678-3.885-8.678-8.678s3.885-8.678 8.678-8.678h234.305c4.793 0 8.678 3.885 8.678 8.678s-3.885 8.678-8.678 8.678z" fill="#fff"/><path d="M477.288 334.102H303.729a8.678 8.678 0 01-8.678-8.678v-52.068c0-52.72 42.738-95.458 95.458-95.458s95.458 42.738 95.458 95.458v52.068a8.68 8.68 0 01-8.679 8.678zm-164.881-17.356H468.61v-43.39c0-43.134-34.967-78.102-78.102-78.102s-78.102 34.967-78.102 78.102v43.39z" fill="#95a5a5"/><path d="M130.169 221.288H60.746c-9.585 0-17.356-7.771-17.356-17.356v-69.424c0-9.585 7.771-17.356 17.356-17.356h34.712a8.678 8.678 0 018.678 8.678 8.678 8.678 0 01-8.678 8.678H60.746v69.424h69.424v-26.034c0-4.793 3.885-8.678 8.678-8.678s8.678 3.885 8.678 8.678v26.034c-.001 9.586-7.771 17.356-17.357 17.356z" fill="#2980ba"/><path d="M95.458 186.576a8.678 8.678 0 01-6.135-2.543l-17.356-17.356a8.68 8.68 0 0112.271-12.271l10.639 10.639 37.315-44.778a8.68 8.68 0 0114.815 2.573 8.682 8.682 0 01-1.485 8.553l-43.39 52.068a8.678 8.678 0 01-6.274 3.107l-.4.008z" fill="#ff5364"/><path d="M130.169 368.814H60.746c-9.585 0-17.356-7.771-17.356-17.356v-69.424c0-9.585 7.771-17.356 17.356-17.356h34.712a8.678 8.678 0 018.678 8.678 8.678 8.678 0 01-8.678 8.678H60.746v69.424h69.424v-26.034c0-4.793 3.885-8.678 8.678-8.678s8.678 3.885 8.678 8.678v26.034c-.001 9.585-7.771 17.356-17.357 17.356z" fill="#2980ba"/><path d="M95.458 334.102a8.674 8.674 0 01-6.135-2.543l-17.356-17.356a8.68 8.68 0 0112.271-12.271l10.639 10.639 37.315-44.778a8.68 8.68 0 0114.815 2.573 8.682 8.682 0 01-1.485 8.553l-43.39 52.068a8.678 8.678 0 01-6.274 3.107l-.4.008z" fill="#ff5364"/><g fill="#2c3e50"><path d="M251.661 143.186h-69.424a8.678 8.678 0 01-8.678-8.678 8.678 8.678 0 018.678-8.678h69.424a8.678 8.678 0 018.678 8.678 8.678 8.678 0 01-8.678 8.678zM295.051 186.576H182.237a8.678 8.678 0 01-8.678-8.678 8.678 8.678 0 018.678-8.678h112.814a8.678 8.678 0 018.678 8.678 8.678 8.678 0 01-8.678 8.678zM251.661 290.712h-69.424a8.678 8.678 0 01-8.678-8.678 8.678 8.678 0 018.678-8.678h69.424a8.678 8.678 0 018.678 8.678 8.678 8.678 0 01-8.678 8.678zM242.983 334.102h-60.746a8.678 8.678 0 01-8.678-8.678 8.678 8.678 0 018.678-8.678h60.746a8.678 8.678 0 010 17.356z"/></g><path d="M286.373 316.746h208.271a8.678 8.678 0 018.678 8.678v130.169c0 28.756-23.312 52.068-52.068 52.068H329.763c-28.756 0-52.068-23.312-52.068-52.068V325.424a8.678 8.678 0 018.678-8.678z" fill="#f0c419"/><g fill="#e57e25"><path d="M390.508 420.881c-14.378 0-26.034-11.656-26.034-26.034 0-14.378 11.656-26.034 26.034-26.034s26.034 11.656 26.034 26.034c0 14.379-11.655 26.034-26.034 26.034zm0-34.712a8.678 8.678 0 00-8.678 8.678 8.678 8.678 0 008.678 8.678 8.678 8.678 0 000-17.356z"/><path d="M390.508 446.915a8.678 8.678 0 01-8.678-8.678v-26.034a8.678 8.678 0 018.678-8.678 8.678 8.678 0 018.678 8.678v26.034a8.678 8.678 0 01-8.678 8.678zM312.407 360.136h-34.712a8.678 8.678 0 01-8.678-8.678 8.678 8.678 0 018.678-8.678h34.712a8.679 8.679 0 010 17.356zM312.407 394.847h-34.712c-4.793 0-8.678-3.885-8.678-8.678s3.885-8.678 8.678-8.678h34.712a8.678 8.678 0 010 17.356zM312.407 429.559h-34.712a8.678 8.678 0 01-8.678-8.678 8.678 8.678 0 018.678-8.678h34.712a8.678 8.678 0 010 17.356zM312.407 464.271h-34.712a8.678 8.678 0 01-8.678-8.678 8.678 8.678 0 018.678-8.678h34.712a8.678 8.678 0 010 17.356zM503.322 360.136H468.61a8.678 8.678 0 01-8.678-8.678 8.678 8.678 0 018.678-8.678h34.712a8.678 8.678 0 010 17.356zM503.322 394.847H468.61c-4.793 0-8.678-3.885-8.678-8.678s3.885-8.678 8.678-8.678h34.712c4.793 0 8.678 3.885 8.678 8.678s-3.885 8.678-8.678 8.678zM503.322 429.559H468.61a8.678 8.678 0 01-8.678-8.678 8.678 8.678 0 018.678-8.678h34.712a8.678 8.678 0 018.678 8.678 8.678 8.678 0 01-8.678 8.678zM503.322 464.271H468.61a8.678 8.678 0 01-8.678-8.678 8.678 8.678 0 018.678-8.678h34.712a8.678 8.678 0 018.678 8.678 8.678 8.678 0 01-8.678 8.678z"/></g></svg>