<?xml version="1.0" encoding="iso-8859-1"?>
<!-- Generator: Adobe Illustrator 19.0.0, SVG Export Plug-In . SVG Version: 6.00 Build 0)  -->
<svg version="1.1" id="Capa_1" xmlns="http://www.w3.org/2000/svg" xmlns:xlink="http://www.w3.org/1999/xlink" x="0px" y="0px"
	 viewBox="0 0 512 512" style="enable-background:new 0 0 512 512;" xml:space="preserve">
<g>
	<path style="fill:#B0D3F0;" d="M0,47.729h451.254v373.153H34.712C15.541,420.881,0,405.34,0,386.169V47.729z"/>
	<path style="fill:#4482C3;" d="M451.254,39.051v34.712H0V39.051C0,19.88,15.541,4.339,34.712,4.339h381.831
		C435.713,4.339,451.254,19.88,451.254,39.051z"/>
	<path style="fill:#F0C419;" d="M52.068,47.729H43.39c-4.793,0-8.678-3.885-8.678-8.678s3.885-8.678,8.678-8.678h8.678
		c4.793,0,8.678,3.885,8.678,8.678S56.861,47.729,52.068,47.729z"/>
	<path style="fill:#24AE5F;" d="M95.458,47.729H86.78c-4.793,0-8.678-3.885-8.678-8.678s3.885-8.678,8.678-8.678h8.678
		c4.793,0,8.678,3.885,8.678,8.678S100.25,47.729,95.458,47.729z"/>
	<path style="fill:#FF5364;" d="M138.847,47.729h-8.678c-4.793,0-8.678-3.885-8.678-8.678s3.885-8.678,8.678-8.678h8.678
		c4.793,0,8.678,3.885,8.678,8.678S143.64,47.729,138.847,47.729z"/>
	<path style="fill:#FFFFFF;" d="M407.864,47.729H173.559c-4.793,0-8.678-3.885-8.678-8.678s3.885-8.678,8.678-8.678h234.305
		c4.793,0,8.678,3.885,8.678,8.678S412.657,47.729,407.864,47.729z"/>
	<path style="fill:#95A5A5;" d="M477.288,334.102H303.729c-4.793,0-8.678-3.885-8.678-8.678v-52.068
		c0-52.72,42.738-95.458,95.458-95.458s95.458,42.738,95.458,95.458v52.068C485.966,330.216,482.081,334.102,477.288,334.102z
		 M312.407,316.746H468.61v-43.39c0-43.134-34.967-78.102-78.102-78.102s-78.102,34.967-78.102,78.102V316.746z"/>
	<path style="fill:#2980BA;" d="M130.169,221.288H60.746c-9.585,0-17.356-7.771-17.356-17.356v-69.424
		c0-9.585,7.771-17.356,17.356-17.356h34.712c4.793,0,8.678,3.885,8.678,8.678c0,4.793-3.885,8.678-8.678,8.678H60.746v69.424
		h69.424v-26.034c0-4.793,3.885-8.678,8.678-8.678s8.678,3.885,8.678,8.678v26.034C147.525,213.518,139.755,221.288,130.169,221.288
		z"/>
	<path style="fill:#FF5364;" d="M95.458,186.576c-2.301-0.001-4.508-0.915-6.135-2.543l-17.356-17.356
		c-3.289-3.405-3.242-8.818,0.106-12.165c3.347-3.347,8.76-3.394,12.165-0.106l10.639,10.639l37.315-44.778
		c1.987-2.381,5.094-3.521,8.15-2.99c3.056,0.531,5.596,2.651,6.665,5.563c1.068,2.912,0.502,6.172-1.485,8.553l-43.39,52.068
		c-1.562,1.871-3.839,2.998-6.274,3.107L95.458,186.576z"/>
	<path style="fill:#2980BA;" d="M130.169,368.814H60.746c-9.585,0-17.356-7.771-17.356-17.356v-69.424
		c0-9.585,7.771-17.356,17.356-17.356h34.712c4.793,0,8.678,3.885,8.678,8.678c0,4.793-3.885,8.678-8.678,8.678H60.746v69.424
		h69.424v-26.034c0-4.793,3.885-8.678,8.678-8.678s8.678,3.885,8.678,8.678v26.034C147.525,361.043,139.755,368.814,130.169,368.814
		z"/>
	<path style="fill:#FF5364;" d="M95.458,334.102c-2.301,0-4.508-0.915-6.135-2.543l-17.356-17.356
		c-3.289-3.405-3.242-8.818,0.106-12.165c3.347-3.347,8.76-3.394,12.165-0.106l10.639,10.639l37.315-44.778
		c1.987-2.381,5.094-3.521,8.15-2.99c3.056,0.531,5.596,2.651,6.665,5.563c1.068,2.912,0.502,6.172-1.485,8.553l-43.39,52.068
		c-1.562,1.871-3.839,2.998-6.274,3.107L95.458,334.102z"/>
	<g>
		<path style="fill:#2C3E50;" d="M251.661,143.186h-69.424c-4.793,0-8.678-3.885-8.678-8.678c0-4.793,3.885-8.678,8.678-8.678
			h69.424c4.793,0,8.678,3.885,8.678,8.678C260.339,139.301,256.454,143.186,251.661,143.186z"/>
		<path style="fill:#2C3E50;" d="M295.051,186.576H182.237c-4.793,0-8.678-3.885-8.678-8.678c0-4.793,3.885-8.678,8.678-8.678
			h112.814c4.793,0,8.678,3.885,8.678,8.678C303.729,182.691,299.844,186.576,295.051,186.576z"/>
		<path style="fill:#2C3E50;" d="M251.661,290.712h-69.424c-4.793,0-8.678-3.885-8.678-8.678c0-4.793,3.885-8.678,8.678-8.678
			h69.424c4.793,0,8.678,3.885,8.678,8.678C260.339,286.827,256.454,290.712,251.661,290.712z"/>
		<path style="fill:#2C3E50;" d="M242.983,334.102h-60.746c-4.793,0-8.678-3.885-8.678-8.678c0-4.793,3.885-8.678,8.678-8.678
			h60.746c4.793,0,8.678,3.885,8.678,8.678C251.661,330.216,247.776,334.102,242.983,334.102z"/>
	</g>
	<path style="fill:#F0C419;" d="M286.373,316.746h208.271c4.793,0,8.678,3.885,8.678,8.678v130.169
		c0,28.756-23.312,52.068-52.068,52.068H329.763c-28.756,0-52.068-23.312-52.068-52.068V325.424
		C277.695,320.631,281.58,316.746,286.373,316.746z"/>
	<g>
		<path style="fill:#E57E25;" d="M390.508,420.881c-14.378,0-26.034-11.656-26.034-26.034c0-14.378,11.656-26.034,26.034-26.034
			s26.034,11.656,26.034,26.034C416.542,409.226,404.887,420.881,390.508,420.881z M390.508,386.169
			c-4.793,0-8.678,3.885-8.678,8.678c0,4.793,3.885,8.678,8.678,8.678c4.793,0,8.678-3.885,8.678-8.678
			C399.186,390.055,395.301,386.169,390.508,386.169z"/>
		<path style="fill:#E57E25;" d="M390.508,446.915c-4.793,0-8.678-3.885-8.678-8.678v-26.034c0-4.793,3.885-8.678,8.678-8.678
			c4.793,0,8.678,3.885,8.678,8.678v26.034C399.186,443.03,395.301,446.915,390.508,446.915z"/>
		<path style="fill:#E57E25;" d="M312.407,360.136h-34.712c-4.793,0-8.678-3.885-8.678-8.678c0-4.793,3.885-8.678,8.678-8.678
			h34.712c4.793,0,8.678,3.885,8.678,8.678C321.085,356.25,317.199,360.136,312.407,360.136z"/>
		<path style="fill:#E57E25;" d="M312.407,394.847h-34.712c-4.793,0-8.678-3.885-8.678-8.678s3.885-8.678,8.678-8.678h34.712
			c4.793,0,8.678,3.885,8.678,8.678S317.199,394.847,312.407,394.847z"/>
		<path style="fill:#E57E25;" d="M312.407,429.559h-34.712c-4.793,0-8.678-3.885-8.678-8.678c0-4.793,3.885-8.678,8.678-8.678
			h34.712c4.793,0,8.678,3.885,8.678,8.678C321.085,425.674,317.199,429.559,312.407,429.559z"/>
		<path style="fill:#E57E25;" d="M312.407,464.271h-34.712c-4.793,0-8.678-3.885-8.678-8.678c0-4.793,3.885-8.678,8.678-8.678
			h34.712c4.793,0,8.678,3.885,8.678,8.678C321.085,460.386,317.199,464.271,312.407,464.271z"/>
		<path style="fill:#E57E25;" d="M503.322,360.136H468.61c-4.793,0-8.678-3.885-8.678-8.678c0-4.793,3.885-8.678,8.678-8.678h34.712
			c4.793,0,8.678,3.885,8.678,8.678C512,356.25,508.115,360.136,503.322,360.136z"/>
		<path style="fill:#E57E25;" d="M503.322,394.847H468.61c-4.793,0-8.678-3.885-8.678-8.678s3.885-8.678,8.678-8.678h34.712
			c4.793,0,8.678,3.885,8.678,8.678S508.115,394.847,503.322,394.847z"/>
		<path style="fill:#E57E25;" d="M503.322,429.559H468.61c-4.793,0-8.678-3.885-8.678-8.678c0-4.793,3.885-8.678,8.678-8.678h34.712
			c4.793,0,8.678,3.885,8.678,8.678C512,425.674,508.115,429.559,503.322,429.559z"/>
		<path style="fill:#E57E25;" d="M503.322,464.271H468.61c-4.793,0-8.678-3.885-8.678-8.678c0-4.793,3.885-8.678,8.678-8.678h34.712
			c4.793,0,8.678,3.885,8.678,8.678C512,460.386,508.115,464.271,503.322,464.271z"/>
	</g>
</g>
<g>
</g>
<g>
</g>
<g>
</g>
<g>
</g>
<g>
</g>
<g>
</g>
<g>
</g>
<g>
</g>
<g>
</g>
<g>
</g>
<g>
</g>
<g>
</g>
<g>
</g>
<g>
</g>
<g>
</g>
</svg>
