<svg height="512" viewBox="0 0 140 140" width="512" xmlns="http://www.w3.org/2000/svg"><circle cx="70" cy="70" fill="#f37735" r="64"/><path d="M44.91 76.3l2.81-2.8c-6.33-8.62-5.62-20.78 2.17-28.58a22.03 22.03 0 017.92-5.06v-8.29h36.53l19.71 19.7v.01l19.92 19.92C133.33 105.99 104.94 134 70 134c-2.37 0-4.71-.14-7.01-.39L27.67 98.29a5.873 5.873 0 010-8.3l9.69-9.68 1.68-1.69.7-.7a5.876 5.876 0 015.17-1.62z" opacity=".1"/><path d="M94.345 31.565H57.808v76.887h56.237V51.266z" fill="#e6e7e8"/><path d="M94.345 51.266h19.7l-19.7-19.7z" fill="#dad7dc"/><g fill="#b0b1b5"><path d="M63.426 58.153h45.002v1.605H63.426zM63.426 63.64h45.002v1.605H63.426zM63.426 69.128h45.002v1.604H63.426zM63.426 74.615h45.002v1.604H63.426zM63.426 80.102h45.002v1.605H63.426zM63.426 85.59h45.002v1.604H63.426zM63.426 91.076h45.002v1.605H63.426zM63.426 96.564h45.002v1.604H63.426zM49.211 71.992l4.749 4.749-5.423 5.422-4.748-4.748z"/></g><path d="M48.041 77.921a5.867 5.867 0 00-8.296 0L27.673 89.993a5.867 5.867 0 008.297 8.297L48.04 86.218a5.867 5.867 0 000-8.297z" fill="#304651"/><path d="M39.05 78.61l8.295 8.295-1.687 1.687-8.295-8.296z" fill="#d49145"/><circle cx="65.465" cy="60.498" fill="#304651" r="22.026"/><circle cx="65.465" cy="60.498" fill="#dad7dc" r="17.91"/><circle cx="65.465" cy="60.498" fill="#48b19a" r="15.704"/><path d="M56.53 52.914a.954.954 0 010-1.35c4.927-4.927 12.943-4.927 17.87 0a.954.954 0 11-1.35 1.35c-4.183-4.183-10.988-4.183-15.17 0a.954.954 0 01-1.35 0z" fill="#e6e7e8"/></svg>