<svg enable-background="new 0 0 140 140" height="512" viewBox="0 0 140 140" width="512" xmlns="http://www.w3.org/2000/svg"><circle cx="70" cy="70" fill="#f37735" r="64"/><path d="m44.9099731 76.2999878 2.8099976-2.7999878c-6.3299561-8.6199951-5.6199951-20.7800293 2.1700439-28.5800171 2.3200073-2.3099976 5.0299683-3.9899902 7.9199829-5.0599976v-8.289978h36.5300293l19.7099609 19.6999512v.0100098l19.9199829 19.9200439c-.6399535 34.789978-29.0299682 62.7999878-63.9699706 62.7999878-2.3699951 0-4.710022-.1400146-7.0100098-.3900146l-35.3200073-35.3200074c-2.289978-2.289978-2.289978-6.0100098 0-8.2999878l9.6900024-9.6799927 1.6799927-1.6900024.7000122-.7000122c1.4100342-1.4000244 3.3500367-1.9400024 5.1699829-1.6199951z" opacity=".1"/><path d="m94.3445511 31.5653477h-36.5362549v76.8863506h56.2368774v-57.1857262z" fill="#e6e7e8"/><path d="m94.3445511 51.2659721h19.7006225l-19.7006225-19.7006244z" fill="#dad7dc"/><g fill="#b0b1b5"><path d="m63.425526 58.153202h45.002426v1.604438h-45.002426z"/><path d="m63.425526 63.640419h45.002426v1.604438h-45.002426z"/><path d="m63.425526 69.127632h45.002426v1.604438h-45.002426z"/><path d="m63.425526 74.614845h45.002426v1.604438h-45.002426z"/><path d="m63.425526 80.102066h45.002426v1.604438h-45.002426z"/><path d="m63.425526 85.589279h45.002426v1.604438h-45.002426z"/><path d="m63.425526 91.076492h45.002426v1.604438h-45.002426z"/><path d="m63.425526 96.563705h45.002426v1.604438h-45.002426z"/><path d="m45.512905 73.256599h6.716703v7.669949h-6.716703z" transform="matrix(.707 .707 -.707 .707 68.826 -11.978)"/></g><path d="m48.0414391 77.9214401c-2.2911224-2.2911224-6.0056686-2.2910767-8.2967453 0l-12.0715599 12.0715637c-2.2910385 2.2910385-2.2911205 6.0056229 0 8.2967453 2.2910805 2.2910767 6.0057068 2.2910385 8.2967453 0l12.0715599-12.0715637c2.2910766-2.2910766 2.2910766-6.005661 0-8.2967453z" fill="#304651"/><path d="m36.482422 82.420906h11.73338v2.385626h-11.73338z" fill="#d49145" transform="matrix(.707 .707 -.707 .707 71.528 -5.455)"/><circle cx="65.465" cy="60.498" fill="#304651" r="22.026"/><circle cx="65.465" cy="60.498" fill="#dad7dc" r="17.91"/><circle cx="65.465" cy="60.498" fill="#48b19a" r="15.704"/><path d="m56.5296173 52.9136772c-.3727341-.3727341-.3730659-.9768257 0-1.3498878 4.9269638-4.9269676 12.9432526-4.9269676 17.8698883-.0003319.3727341.3727379.3730621.9768257 0 1.3498917-.3730698.3730621-.9771576.3727341-1.3498917 0-4.1824799-4.1824837-10.9872971-4.1824837-15.1701088.0003281-.3730621.3730659-.9771537.372734-1.3498878-.0000001z" fill="#e6e7e8"/></svg>