<svg xmlns="http://www.w3.org/2000/svg" viewBox="0 0 48.345 48.345"><path d="M18.6 42.845H2.4a2.4 2.4 0 01-2.4-2.4v-16.2a2.4 2.4 0 012.4-2.4h16.2a2.4 2.4 0 012.4 2.4v16.2a2.4 2.4 0 01-2.4 2.4z" fill="#ecf0f1"/><circle cx="5" cy="26.845" r="2" fill="#2c2f38"/><circle cx="16" cy="26.845" r="2" fill="#2c2f38"/><circle cx="5" cy="37.845" r="2" fill="#2c2f38"/><circle cx="16" cy="37.845" r="2" fill="#2c2f38"/><path d="M46.734 25.466l-15.299 5.327a2.4 2.4 0 01-3.056-1.477l-5.327-15.299a2.4 2.4 0 011.477-3.056l15.299-5.327a2.4 2.4 0 013.056 1.477l5.327 15.299a2.4 2.4 0 01-1.477 3.056z" fill="#d1d4d1"/><circle cx="28.628" cy="14.828" r="2" fill="#2c2f38"/><circle cx="39.017" cy="11.211" r="2" fill="#2c2f38"/><circle cx="32.246" cy="25.217" r="2" fill="#2c2f38"/><circle cx="10.5" cy="32.678" r="2" fill="#2c2f38"/><circle cx="42.634" cy="21.599" r="2" fill="#2c2f38"/></svg>