<svg height="512" viewBox="0 0 256 256" width="512" xmlns="http://www.w3.org/2000/svg"><path d="m128 98.693a2.5 2.5 0 0 1 -2.5-2.5v-20.793a2.5 2.5 0 0 1 5 0v20.8a2.5 2.5 0 0 1 -2.5 2.493z" fill="#65c1d6"/><path d="m128 183.1a2.5 2.5 0 0 1 -2.5-2.5v-20.8a2.5 2.5 0 0 1 5 0v20.8a2.5 2.5 0 0 1 -2.5 2.5z" fill="#65c1d6"/><path d="m177.732 130.5h-17.924a2.5 2.5 0 0 1 0-5h17.924a2.5 2.5 0 0 1 0 5z" fill="#65c1d6"/><path d="m96.193 130.5h-17.925a2.5 2.5 0 0 1 0-5h17.925a2.5 2.5 0 0 1 0 5z" fill="#65c1d6"/><g fill="#846f75"><path d="m76.671 102.167h-56.842a4.1 4.1 0 0 0 -4.1 4.1v43.474a4.1 4.1 0 0 0 4.1 4.1h56.842a4.1 4.1 0 0 0 4.1-4.1v-43.478a4.1 4.1 0 0 0 -4.1-4.096zm-.9 46.666h-55.039v-41.666h55.036z"/><path d="m44.409 137.233a2.5 2.5 0 0 0 3.268-1.347l5.762-13.851a2.5 2.5 0 0 0 -4.616-1.921l-5.762 13.851a2.5 2.5 0 0 0 1.348 3.268z"/><path d="m57.961 136.646a2.5 2.5 0 0 0 3.535 0l6.879-6.878a2.5 2.5 0 0 0 0-3.536l-6.875-6.878a2.5 2.5 0 1 0 -3.535 3.535l5.106 5.111-5.11 5.111a2.5 2.5 0 0 0 0 3.535z"/><path d="m35 136.646a2.5 2.5 0 0 0 3.535-3.535l-5.106-5.111 5.11-5.111a2.5 2.5 0 1 0 -3.539-3.535l-6.879 6.878a2.5 2.5 0 0 0 0 3.536z"/><path d="m236.171 102.167h-56.842a4.1 4.1 0 0 0 -4.1 4.1v43.474a4.1 4.1 0 0 0 4.1 4.1h56.842a4.1 4.1 0 0 0 4.1-4.1v-43.478a4.1 4.1 0 0 0 -4.1-4.096zm-.9 46.666h-55.039v-41.666h55.036z"/><path d="m203.909 137.233a2.5 2.5 0 0 0 3.269-1.347l5.761-13.851a2.5 2.5 0 0 0 -4.617-1.921l-5.761 13.851a2.5 2.5 0 0 0 1.348 3.268z"/><path d="m217.461 136.646a2.5 2.5 0 0 0 3.535 0l6.879-6.878a2.5 2.5 0 0 0 0-3.536l-6.875-6.878a2.5 2.5 0 1 0 -3.535 3.536l5.11 5.11-5.11 5.11a2.5 2.5 0 0 0 -.004 3.536z"/><path d="m194.5 136.646a2.5 2.5 0 0 0 3.535-3.536l-5.11-5.11 5.11-5.11a2.5 2.5 0 1 0 -3.535-3.536l-6.879 6.878a2.5 2.5 0 0 0 0 3.536z"/><path d="m99.579 77.9h56.842a4.1 4.1 0 0 0 4.1-4.1v-43.474a4.1 4.1 0 0 0 -4.1-4.1h-56.842a4.1 4.1 0 0 0 -4.1 4.1v43.474a4.1 4.1 0 0 0 4.1 4.1zm.9-46.667h55.036v41.667h-55.033z"/><path d="m131.841 42.829a2.5 2.5 0 0 0 -3.268 1.348l-5.762 13.85a2.5 2.5 0 1 0 4.616 1.921l5.762-13.85a2.5 2.5 0 0 0 -1.348-3.269z"/><path d="m141.246 43.416a2.5 2.5 0 0 0 -3.535 3.536l5.11 5.111-5.11 5.11a2.5 2.5 0 1 0 3.535 3.536l6.879-6.878a2.5 2.5 0 0 0 0-3.537z"/><path d="m118.289 43.417a2.5 2.5 0 0 0 -3.535 0l-6.879 6.883a2.5 2.5 0 0 0 0 3.535l6.879 6.878a2.5 2.5 0 0 0 3.535-3.535l-5.11-5.11 5.11-5.111a2.5 2.5 0 0 0 0-3.54z"/><path d="m156.421 178.1h-56.842a4.1 4.1 0 0 0 -4.1 4.1v43.473a4.1 4.1 0 0 0 4.1 4.1h56.842a4.1 4.1 0 0 0 4.1-4.1v-43.473a4.1 4.1 0 0 0 -4.1-4.1zm-.9 46.667h-55.039v-41.667h55.036z"/><path d="m124.159 213.171a2.5 2.5 0 0 0 3.268-1.348l5.762-13.85a2.5 2.5 0 1 0 -4.616-1.921l-5.762 13.85a2.5 2.5 0 0 0 1.348 3.269z"/><path d="m137.711 212.583a2.5 2.5 0 0 0 3.535 0l6.879-6.878a2.5 2.5 0 0 0 0-3.537l-6.879-6.878a2.5 2.5 0 0 0 -3.535 3.536l5.11 5.111-5.11 5.11a2.5 2.5 0 0 0 0 3.536z"/><path d="m114.754 212.583a2.5 2.5 0 0 0 3.535-3.535l-5.11-5.11 5.11-5.111a2.5 2.5 0 0 0 -3.535-3.535l-6.879 6.878a2.5 2.5 0 0 0 0 3.535z"/><path d="m158.222 119.374-5.79-1.492 3.04-5.152a5.454 5.454 0 0 0 -.843-6.622l-4.734-4.733a5.452 5.452 0 0 0 -6.624-.842l-5.149 3.039-1.493-5.793a5.454 5.454 0 0 0 -5.278-4.085h-6.7a5.451 5.451 0 0 0 -5.278 4.088l-1.493 5.79-5.152-3.041a5.453 5.453 0 0 0 -6.621.844l-4.733 4.734a5.452 5.452 0 0 0 -.843 6.624l3.039 5.149-5.793 1.493a5.452 5.452 0 0 0 -4.085 5.278v6.7a5.451 5.451 0 0 0 4.088 5.279l5.79 1.492-3.04 5.152a5.452 5.452 0 0 0 .844 6.622l4.733 4.733a5.455 5.455 0 0 0 6.625.842l5.148-3.039 1.493 5.793a5.452 5.452 0 0 0 5.278 4.086h6.7a5.456 5.456 0 0 0 5.279-4.088l1.492-5.791 5.152 3.041a5.452 5.452 0 0 0 6.621-.843l4.735-4.735a5.455 5.455 0 0 0 .841-6.623l-3.039-5.149 5.792-1.493a5.453 5.453 0 0 0 4.087-5.279v-6.7a5.453 5.453 0 0 0 -4.089-5.279zm-.914 11.973a.453.453 0 0 1 -.337.438l-9.009 2.321a2.5 2.5 0 0 0 -1.529 3.691l4.727 8.009a.453.453 0 0 1 -.069.55l-4.736 4.735a.454.454 0 0 1 -.546.071l-8.011-4.729a2.5 2.5 0 0 0 -3.692 1.529l-2.32 9.005a.453.453 0 0 1 -.438.34h-6.7a.451.451 0 0 1 -.437-.336l-2.321-9.009a2.5 2.5 0 0 0 -3.692-1.529l-8.008 4.727a.453.453 0 0 1 -.55-.07l-4.734-4.734a.452.452 0 0 1 -.072-.547l4.728-8.012a2.5 2.5 0 0 0 -1.528-3.691l-9.007-2.321a.451.451 0 0 1 -.338-.438v-6.7a.452.452 0 0 1 .336-.437l9.009-2.321a2.5 2.5 0 0 0 1.528-3.692l-4.727-8.009a.454.454 0 0 1 .071-.55l4.733-4.733a.453.453 0 0 1 .548-.072l8.011 4.728a2.5 2.5 0 0 0 3.692-1.528l2.321-9.007a.451.451 0 0 1 .437-.338h6.7a.452.452 0 0 1 .437.336l2.321 9.009a2.5 2.5 0 0 0 3.692 1.528l8.008-4.726a.449.449 0 0 1 .55.07l4.734 4.733a.45.45 0 0 1 .071.547l-4.728 8.012a2.5 2.5 0 0 0 1.529 3.692l9.008 2.321a.452.452 0 0 1 .338.437z"/></g><path d="m128 140.762a12.762 12.762 0 1 1 12.763-12.762 12.776 12.776 0 0 1 -12.763 12.762zm0-20.524a7.762 7.762 0 1 0 7.763 7.762 7.771 7.771 0 0 0 -7.763-7.762z" fill="#65c1d6"/></svg>