<svg id="Layer_1" data-name="Layer 1" xmlns="http://www.w3.org/2000/svg" viewBox="0 0 90 90"><defs><style>.cls-1{fill:#4698cb;}.cls-2{fill:none;stroke:#c2ddee;stroke-dasharray:2.04 1.63;}.cls-2,.cls-3,.cls-4,.cls-7{stroke-miterlimit:10;stroke-width:0.65px;}.cls-3{fill:#c5003e;}.cls-3,.cls-7{stroke:#fff;}.cls-4,.cls-5{fill:#fff;}.cls-4{stroke:#004b87;}.cls-6,.cls-7{fill:#004b87;}</style></defs><title>user-experience</title><path class="cls-1" d="M33.83,28.62V46.13c0,2.34.71,2.95,1.9,2.95s1.9-.61,1.9-2.95V28.62H44V44.53c0,6.8-2.93,8.84-8.23,8.84s-8.23-2-8.23-8.84V28.62Z"/><path class="cls-1" d="M45.18,28.62h7.07l2,7h.07l2-7H63.4l-5.26,12,5.67,12.31H56.74l-2.41-7.31h-.07l-2.41,7.31H44.77l5.75-12.31Z"/><circle class="cls-2" cx="45.05" cy="45.12" r="30.99"/><rect class="cls-3" x="30.76" y="55.97" width="28.57" height="7.89" rx="1.65" ry="1.65"/><path class="cls-4" d="M37.9,77.57V61.35A2.36,2.36,0,0,1,40.26,59h0a2.36,2.36,0,0,1,2.36,2.36v6.84A2.36,2.36,0,0,1,45,65.83h0a2.36,2.36,0,0,1,2.36,2.36V70.5a2.36,2.36,0,0,1,2.36-2.36h0a2.36,2.36,0,0,1,2.36,2.36v2.78a2.36,2.36,0,0,1,2.35-2.36h0a2.36,2.36,0,0,1,2.36,2.36v9H37.14L33.48,72.26a2.35,2.35,0,0,1,1.41-3h0a2.36,2.36,0,0,1,3,1.41"/><polygon class="cls-5" points="77.82 53.59 80.08 52.38 82.03 51.36 78.92 45.54 84.16 45.54 70.4 31.74 70.4 51.11 74.41 47.22 77.82 53.59"/><rect class="cls-6" x="75.76" y="42.13" width="2.42" height="9.68" transform="translate(-13.05 41.73) rotate(-28.06)"/><polygon class="cls-6" points="71.61 34.65 71.61 48.19 75.55 44.38 81.32 44.38 71.61 34.65"/><rect class="cls-7" x="9.29" y="36.1" width="9.58" height="17.08" rx="1.44" ry="1.44"/><circle class="cls-5" cx="14.08" cy="50.84" r="0.78"/><rect class="cls-7" x="35.13" y="8.21" width="19.82" height="13.77" rx="1.44" ry="1.44"/><rect class="cls-5" x="37.01" y="10.17" width="16.08" height="8.78"/><path class="cls-7" d="M32,20.69h26a0,0,0,0,1,0,0v.83a1.65,1.65,0,0,1-1.65,1.65H33.69A1.65,1.65,0,0,1,32,21.52v-.83A0,0,0,0,1,32,20.69Z"/></svg>