<svg id="Layer_1" data-name="Layer 1" xmlns="http://www.w3.org/2000/svg" viewBox="0 0 302.74 254.22">
  <defs>
    <style>
      .cls-1 {
        fill: none;
      }

      .cls-1, .cls-3, .cls-5 {
        stroke: #3d4752;
        stroke-miterlimit: 10;
      }

      .cls-1, .cls-3 {
        stroke-width: 3px;
      }

      .cls-2 {
        fill: #3d4752;
      }

      .cls-3, .cls-4, .cls-5 {
        fill: #fff;
      }

      .cls-5 {
        stroke-width: 2.22px;
      }
    </style>
  </defs>
  <title>logical-vs-physical-data-flow-diagram-feature-image-updated</title>
  <g>
    <line class="cls-1" x1="155.28" y1="54.19" x2="155.28" y2="3.84"/>
    <polygon class="cls-2" points="156.44 54.2 154.14 54.2 151.23 45.33 159.33 45.33 156.44 54.2"/>
    <line class="cls-1" x1="245.8" y1="62.53" x2="160.56" y2="91.94"/>
    <polygon class="cls-2" points="245.37 61.46 246.22 63.59 239.09 69.59 236.07 62.08 245.37 61.46"/>
    <line class="cls-1" x1="161.37" y1="117.6" x2="246.6" y2="147.01"/>
    <polygon class="cls-2" points="236.87 147.46 239.89 139.95 247.03 145.95 246.17 148.08 236.87 147.46"/>
    <line class="cls-1" x1="143.55" y1="96.43" x2="143.55" y2="28.4"/>
    <polygon class="cls-2" points="147.6 37.26 139.5 37.26 142.41 28.4 144.71 28.4 147.6 37.26"/>
    <path class="cls-1" d="M16.33,93.27h97.11" transform="translate(-0.43 -1.89)"/>
    <polygon class="cls-2" points="104.08 87.33 113 90.23 113 92.52 104.08 95.43 104.08 87.33"/>
    <path class="cls-1" d="M32.33,106.26l93.11,69.08" transform="translate(-0.43 -1.89)"/>
    <polygon class="cls-2" points="120.31 164.79 125.61 172.53 124.21 174.35 115.37 171.21 120.31 164.79"/>
    <circle class="cls-3" cx="149.72" cy="92.5" r="38.8"/>
    <path class="cls-3" d="M301.65,62.62a29.15,29.15,0,1,1-29.13-29.17A29.15,29.15,0,0,1,301.65,62.62Z" transform="translate(-0.43 -1.89)"/>
    <path class="cls-3" d="M301.67,149.64a29.17,29.17,0,1,1-29.17-29.17A29.15,29.15,0,0,1,301.67,149.64Z" transform="translate(-0.43 -1.89)"/>
    <path class="cls-3" d="M203.26,3.39H100.11a2.23,2.23,0,0,0-2.19,2.19V29a2.2,2.2,0,0,0,2.19,2.19H203.26" transform="translate(-0.43 -1.89)"/>
    <path class="cls-3" d="M1.93,80.8a2.32,2.32,0,0,1,2.31-2.31H62.13a2.32,2.32,0,0,1,2.31,2.31v24.95a2.29,2.29,0,0,1-2.31,2.31H4.24a2.29,2.29,0,0,1-2.31-2.31Z" transform="translate(-0.43 -1.89)"/>
    <line class="cls-1" x1="149.72" y1="130.7" x2="149.72" y2="177.16"/>
    <polygon class="cls-2" points="148.56 130.7 150.86 130.7 153.76 139.56 145.67 139.56 148.56 130.7"/>
    <line class="cls-1" x1="129.05" y1="200.59" x2="129.05" y2="234.89"/>
    <polygon class="cls-2" points="127.9 200.59 130.19 200.59 133.1 209.45 125 209.45 127.9 200.59"/>
    <line class="cls-1" x1="138.62" y1="181.14" x2="138.62" y2="227.6"/>
    <polygon class="cls-2" points="134.57 218.73 142.66 218.73 139.76 227.6 137.46 227.6 134.57 218.73"/>
    <line class="cls-1" x1="169.78" y1="234.89" x2="169.78" y2="200.59"/>
    <polygon class="cls-2" points="173.83 209.45 165.73 209.45 168.64 200.59 170.93 200.59 173.83 209.45"/>
    <line class="cls-1" x1="160.21" y1="227.6" x2="160.21" y2="181.14"/>
    <polygon class="cls-2" points="161.37 227.6 159.07 227.6 156.17 218.73 164.26 218.73 161.37 227.6"/>
    <path class="cls-3" d="M177,185.34a27.14,27.14,0,1,1-27.12-27.12A27.11,27.11,0,0,1,177,185.34Z" transform="translate(-0.43 -1.89)"/>
    <rect class="cls-4" x="79.14" y="227.27" width="63.91" height="25.43" rx="2.02" ry="2.02"/>
    <path class="cls-5" d="M143.49,254.59H79.57m0-25.43h63.91" transform="translate(-0.43 -1.89)"/>
    <path class="cls-3" d="M143.49,254.59H79.57m0-25.43h63.91" transform="translate(-0.43 -1.89)"/>
    <path class="cls-4" d="M155,231.16a2,2,0,0,1,2-2H216.9a2,2,0,0,1,2,2v21.43a2,2,0,0,1-2,2H157a2,2,0,0,1-2-2Z" transform="translate(-0.43 -1.89)"/>
    <path class="cls-5" d="M218.92,254.61H155m0-25.47h63.91" transform="translate(-0.43 -1.89)"/>
    <path class="cls-3" d="M218.92,254.61H155m0-25.47h63.91" transform="translate(-0.43 -1.89)"/>
  </g>
<script xmlns=""/></svg>